# xmcd CD database file
#
# Track frame offsets:
#	150
#	14010
#	27437
#	43720
#	61162
#	75722
#	89425
#	106067
#	122892
#	147245
#	167777
#	184742
#	198552
#	218870
#	239427
#	253290
#	271355
#	290227
#	309137
#	325150
#
# Disc length: 4624 seconds
#
# Revision: 1
# Processed by: cddbd v1.5.1PL2 Copyright (c) Steve Scherf et al.
# Submitted via: CDex 1.50
#
DISCID=2d120e14
DTITLE=Various Artist - ドラえもん映画主題歌集
DYEAR=2004
DGENRE=Anime
TTITLE0=大山のぶ代、ヤング・フレッシュ/ポケットの中に
TTITLE1=岩渕まこと/心をゆらして
TTITLE2=岩渕まこと/だからみんなで
TTITLE3=岩渕まこと/海はぼくらと
TTITLE4=武田鉄矢/少年期
TTITLE5=大杉久美子/わたしが不思議
TTITLE6=大山のぶ代、森の木児童合唱団/友達だから
TTITLE7=堀江美都子、こおろぎ'73/君がいるから
TTITLE8=武田鉄矢/天までとどけ
TTITLE9=島崎和歌子/何かいい事きっとある
TTITLE10=KUKO/友達なのに
TTITLE11=横山智佐/愛しのニャーオ
TTITLE12=吉川ひなの/ホットミルク
TTITLE13=中西保志、沢田知可子/幸せのドア
TTITLE14=ウィーン少年合唱団/ドラえもんのうた
TTITLE15=由紀さおり、安田祥子/この星のどこかで
TTITLE16=タケカワヒデユキ＆T's COMPANY/ハグしよう
TTITLE17=ダ・カーポ/さよならとは言わないで
TTITLE18=小坂明子/キミに会いたくて
TTITLE19=KONISHIKI/いっしょに歩こう 〜Walking into sunshine〜
EXTD=YEAR: 2004
EXTT0=
EXTT1=
EXTT2=
EXTT3=
EXTT4=
EXTT5=
EXTT6=
EXTT7=
EXTT8=
EXTT9=
EXTT10=
EXTT11=
EXTT12=
EXTT13=
EXTT14=
EXTT15=
EXTT16=
EXTT17=
EXTT18=
EXTT19=
PLAYORDER=
